<svg xmlns="http://www.w3.org/2000/svg" width="10" height="19" viewBox="0 0 10 19">
    <path fill="#000" fill-rule="nonzero" d="M9.623.004L7.225 0C4.53 0 2.789 1.811 2.789 4.614v2.128H.377A.38.38 0 0 0 0 7.124v3.083a.38.38 0 0 0 .377.382H2.79v7.779a.38.38 0 0 0 .377.382h3.146a.38.38 0 0 0 .378-.382v-7.779h2.82a.38.38 0 0 0 .376-.382l.002-3.083a.386.386 0 0 0-.11-.27.375.375 0 0 0-.268-.112H6.69V4.938c0-.866.203-1.307 1.317-1.307h1.616A.38.38 0 0 0 10 3.249V.386a.38.38 0 0 0-.377-.382z"/>
</svg>
