<svg xmlns="http://www.w3.org/2000/svg" width="18" height="18" viewBox="0 0 18 18">
    <path fill="#000" fill-rule="nonzero" d="M18 10.556v6.661h-3.858v-6.215c0-1.561-.558-2.627-1.954-2.627-1.066 0-1.7.718-1.98 1.413-.102.248-.128.594-.128.942v6.487H6.22s.053-10.526 0-11.617h3.86v1.647l-.026.037h.026v-.037c.512-.79 1.428-1.92 3.477-1.92 2.54 0 4.443 1.66 4.443 5.229zM2.184 0C.864 0 0 .867 0 2.007c0 1.115.839 2.008 2.133 2.008h.025c1.346 0 2.183-.893 2.183-2.008C4.316.867 3.504 0 2.184 0zM.229 17.217h3.858V5.6H.229v11.617z"/>
</svg>
